<svg id="Layer_1" data-name="Layer 1" xmlns="http://www.w3.org/2000/svg" viewBox="0 0 409.45 409.45"><title>logo</title><circle cx="204.72" cy="204.72" r="202.22" style="fill:#fff;stroke:#4d4d4d;stroke-miterlimit:10;stroke-width:5px"/><path d="M138.83,216.55c-.58-.94-2.29-2.42-2.93-3.33-1.33-1.86-2.45-4.31.68-9.1,0,0,3.33-3.82,12.63-8,0,0,12.64-5,23.5-8,0,0,19.69-5,35.94-7.44,0,0,20.29-3.49,40.73-5.39,12.09-1.12,26.24-2.74,48.47-2.94,0,0,36.72-.78,54.25,4.41,0,0,15.27,3.72,20.07,10.28,0,0,3.37,7.59-3.13,18.31-1.06,1.75-4.41,10,8,1.47,0,0,9.69-7.83,3.23-22.42,0,0-6.67-11.87-26.73-18.7-7.93-2.7-24.34-7.6-32.32-8.82-10.45-1.59-37-4-42.39-4-12.83,0-20.67.22-46.51,2.35-8.9.73-13.55.64-35.25,5.58-8.25,1.88-24.58,6.35-32.61,9a69.93,69.93,0,0,0-20.66,11,40.32,40.32,0,0,0-10.18,10.68c-2.8,4.36-6.26,12.68-2.55,20.56,1.06,2.26,4,7.17,7.49,6.6C138.59,218.55,140,218.5,138.83,216.55Z" transform="translate(-51.28 -51.28)" style="fill:#4d4d4d;stroke:#000;stroke-miterlimit:10;stroke-width:0.25px"/><path d="M265.93,198.24c-2.66,4-11.15,15.73-11.15,15.73l-12.95,18.16S231.29,246.93,228,252c-3.43,5.27-13,21.49-13,21.49a128.85,128.85,0,0,0-12.77,28.23,133.51,133.51,0,0,0-4.41,21.13c-.48,5.37-1.67,12.85,1.53,21.49,1.16,3.12,3.6,9.89,16,13.67,0,0,11.92,3.33,18.52-1.17a39.2,39.2,0,0,0,3.78-2.43c.53-.49,2.87-3.86-2.79-.9,0,0-6.47,4.5-12.14,1.17-1.33-.78-1.58-.85-4.49-4.22-1.11-1.29-2.61-4.59-2.61-12.77,0,0-.18-7.8,2.43-20.23,1.18-5.64,4-16.83,5.84-22.3,1.9-5.73,9.08-22.39,9.08-22.39s9.1-19,12.41-25.26c2.65-5,11.24-19.51,11.24-19.51l8.63-14.48L279.06,192s4.69-6.24,5.66-8.63c.57-1.42.45-9.39-5.12-3.33A183.58,183.58,0,0,0,265.93,198.24Z" transform="translate(-51.28 -51.28)" style="fill:#4d4d4d"/></svg>